<svg width="22" height="26" viewBox="0 0 22 26" fill="none" xmlns="http://www.w3.org/2000/svg">
<path d="M2.2 4.5175V18.4167C2.19979 19.7919 2.73071 21.1157 3.68509 22.1196C4.63946 23.1235 5.94583 23.7323 7.3392 23.8225L7.7 23.8333H17.4108C17.1834 24.4669 16.7621 25.0155 16.205 25.4035C15.6479 25.7915 14.9823 25.9999 14.3 26H6.6C4.84957 26 3.17084 25.3152 1.9331 24.0962C0.695356 22.8772 4.53721e-07 21.2239 4.53721e-07 19.5V7.58333C-0.000357456 6.91096 0.211041 6.25503 0.605062 5.70594C0.999083 5.15684 1.55633 4.74162 2.2 4.5175ZM18.7 0C19.5752 0 20.4146 0.34241 21.0335 0.951903C21.6523 1.5614 22 2.38805 22 3.25V18.4167C22 19.2786 21.6523 20.1053 21.0335 20.7148C20.4146 21.3243 19.5752 21.6667 18.7 21.6667H7.7C6.82479 21.6667 5.98542 21.3243 5.36655 20.7148C4.74768 20.1053 4.4 19.2786 4.4 18.4167V3.25C4.4 2.38805 4.74768 1.5614 5.36655 0.951903C5.98542 0.34241 6.82479 0 7.7 0H18.7ZM18.7 2.16667H7.7C7.40826 2.16667 7.12847 2.2808 6.92218 2.48397C6.71589 2.68713 6.6 2.96268 6.6 3.25V18.4167C6.6 18.704 6.71589 18.9795 6.92218 19.1827C7.12847 19.3859 7.40826 19.5 7.7 19.5H18.7C18.9917 19.5 19.2715 19.3859 19.4778 19.1827C19.6841 18.9795 19.8 18.704 19.8 18.4167V3.25C19.8 2.96268 19.6841 2.68713 19.4778 2.48397C19.2715 2.2808 18.9917 2.16667 18.7 2.16667Z" fill="#3F0E40"/>
</svg>
