<?xml version="1.0" encoding="UTF-8"?>
<svg width="224px" height="220px" viewBox="0 0 224 220" version="1.1" xmlns="http://www.w3.org/2000/svg" xmlns:xlink="http://www.w3.org/1999/xlink">
    <!-- Generator: sketchtool 52.6 (67491) - http://www.bohemiancoding.com/sketch -->
    <title>527AA5BD-E0FD-4F7D-83EE-CE61375B5217</title>
    <desc>Created with sketchtool.</desc>
    <g id="V8---Final" stroke="none" stroke-width="1" fill="none" fill-rule="evenodd">
        <g id="12_Error_v8" transform="translate(-607.000000, -250.000000)">
            <g id="Error" transform="translate(608.000000, 250.000000)">
                <path d="M223,111 C223,171.177628 174.199731,220 114.002616,220 C53.8055015,220 5,171.19856 5,111 C5,50.8014402 53.8002688,2 114.02878,2 C174.257291,2 223,50.8014402 223,111 Z" id="Shape" fill="#222C3C" fill-rule="nonzero"></path>
                <path d="M163.097862,173.188599 C162.364142,171.087064 160.347589,169.708098 158.12304,169.786698 C143.956295,171.08266 140.423753,159.690736 139.483135,154.005226 C138.678385,149.140143 137.742993,134.288836 137.742993,134.288836 C137.742993,115.476485 123.659857,100.217577 104.821378,100.217577 C85.9828979,100.217577 71.9938242,115.471259 71.8997625,134.288836 C71.8997625,138.307363 71.8370546,142.153444 71.5705463,150.35772 C71.4608076,153.84323 54.8484561,152.704038 51.8593824,140.711164 C51.1127384,138.314769 48.7276437,136.823069 46.2461678,137.200514 C43.7646919,137.57796 41.9309941,139.71136 41.9306413,142.221378 C41.9294971,142.787315 42.0249283,143.349299 42.2128266,143.883135 C47.1353919,160.56342 67.8969121,162.031829 69.4489311,167.220903 C72.0617577,175.87981 70.7396675,194.394299 70.7396675,194.394299 L70.7396675,195.136342 L70.807601,195.136342 C71.186973,199.549693 74.8801119,202.938989 79.3097387,202.938989 C83.7393655,202.938989 87.4325044,199.549693 87.8118765,195.136342 L87.8745843,195.136342 C88.2386963,199.560176 91.9353157,202.965039 96.3741093,202.965039 C100.812903,202.965039 104.509522,199.560176 104.873634,195.136342 L104.941568,195.136342 C105.30568,199.560176 109.002299,202.965039 113.441093,202.965039 C117.879886,202.965039 121.576506,199.560176 121.940618,195.136342 L122.019002,195.136342 C122.393612,199.550645 126.085745,202.943047 130.515914,202.943468 C138.934442,202.943468 139.007601,193.464133 138.934442,193.014727 L138.526841,172.697387 C143.51734,176.924941 150.143468,180.347743 158.342518,179.940143 C159.987135,179.939053 161.529003,179.14013 162.478323,177.797164 C163.427643,176.454198 163.666406,174.734133 163.118765,173.183373 L163.097862,173.188599 Z" id="Shape" fill="#FFFFFF" fill-rule="nonzero"></path>
                <polygon id="Rectangle-path" fill="#725C41" fill-rule="nonzero" transform="translate(43.911477, 141.201189) rotate(-8.640000) translate(-43.911477, -141.201189) " points="41.9492443 125.93183 45.8737099 125.93183 45.8737099 156.470547 41.9492443 156.470547"></polygon>
                <polygon id="Rectangle-path" fill="#92785C" fill-rule="nonzero" transform="translate(43.931337, 141.187325) rotate(-8.650000) translate(-43.931337, -141.187325) " points="42.5230234 126.471885 45.3396505 126.471885 45.3396505 155.902764 42.5230234 155.902764"></polygon>
                <path d="M73.7914489,121.51734 C74.0736342,123.2 73.1225653,124.767696 71.6698337,125.013302 L9.14489311,135.542993 C7.68693587,135.788599 6.2760095,134.623278 6.00950119,132.930166 L0.182897862,98.336342 C-0.0992874109,96.6484561 0.846555819,95.0859857 2.30451306,94.84038 L64.8503563,84.3054632 C66.3030879,84.0598575 67.7087886,85.2304038 67.9857482,86.9182898 L73.7914489,121.51734 Z" id="Shape" stroke="#6F5B45" stroke-width="2" fill="#846C53" fill-rule="nonzero"></path>
                <path d="M7.07030879,132.747268 L1.24370546,98.1586698 C1.0608076,97.0769596 1.60427553,96.0684086 2.45605701,95.9325416 L65.0019002,85.4028504 C65.9895487,85.4028504 66.7106888,86.1448931 66.8726841,87.1273159 L72.6992874,121.72114 C72.8821853,122.80285 72.3387173,123.811401 71.4869359,123.942043 L8.94109264,134.450831 C7.95344418,134.471734 7.23230404,133.729691 7.07030879,132.747268 Z" id="Shape" fill="#92785C" fill-rule="nonzero"></path>
                <path d="M6.84529145,110.357098 C6.84529145,108.775059 7.37914028,107.471361 8.44685395,106.445966 C9.51456763,105.42057 10.9566105,104.90788 12.7730258,104.90788 C14.8498591,104.90788 16.4188539,105.510087 17.4800571,106.71452 C18.3329259,107.684577 18.759354,108.879227 18.759354,110.298505 C18.759354,111.893565 18.2303879,113.200518 17.1724399,114.219403 C16.1144919,115.238288 14.6512904,115.747723 12.7827915,115.747723 C11.1161165,115.747723 9.76847368,115.324551 8.7398227,114.478192 C7.47679556,113.43001 6.84529145,112.056326 6.84529145,110.357098 Z M10.8296665,110.347333 C10.8296665,111.271817 11.0168391,111.955403 11.3911899,112.398114 C11.7655407,112.840825 12.2359136,113.062177 12.8023227,113.062177 C13.3752422,113.062177 13.8456151,112.84408 14.2134555,112.40788 C14.5812959,111.97168 14.7652133,111.271817 14.7652133,110.30827 C14.7652133,109.409828 14.5796683,108.74089 14.2085727,108.301434 C13.8374771,107.861979 13.3784973,107.642255 12.8316196,107.642255 C12.2521896,107.642255 11.7736788,107.865234 11.3960727,108.3112 C11.0184667,108.757166 10.8296665,109.43587 10.8296665,110.347333 Z M20.1851352,110.357098 C20.1851352,108.775059 20.718984,107.471361 21.7866977,106.445966 C22.8544114,105.42057 24.2964542,104.90788 26.1128696,104.90788 C28.1897029,104.90788 29.7586976,105.510087 30.8199008,106.71452 C31.6727697,107.684577 32.0991977,108.879227 32.0991977,110.298505 C32.0991977,111.893565 31.5702316,113.200518 30.5122836,114.219403 C29.4543356,115.238288 27.9911341,115.747723 26.1226352,115.747723 C24.4559602,115.747723 23.1083174,115.324551 22.0796665,114.478192 C20.8166393,113.43001 20.1851352,112.056326 20.1851352,110.357098 Z M24.1695102,110.347333 C24.1695102,111.271817 24.3566828,111.955403 24.7310336,112.398114 C25.1053845,112.840825 25.5757574,113.062177 26.1421665,113.062177 C26.715086,113.062177 27.1854589,112.84408 27.5532993,112.40788 C27.9211396,111.97168 28.1050571,111.271817 28.1050571,110.30827 C28.1050571,109.409828 27.9195121,108.74089 27.5484165,108.301434 C27.1773208,107.861979 26.7183411,107.642255 26.1714633,107.642255 C25.5920333,107.642255 25.1135225,107.865234 24.7359165,108.3112 C24.3583104,108.757166 24.1695102,109.43587 24.1695102,110.347333 Z M34.0327915,119.458661 L34.0327915,105.142255 L37.7534946,105.142255 L37.7534946,106.675458 C38.2678201,106.030923 38.7398206,105.59473 39.1695102,105.366864 C39.7489402,105.060873 40.3902098,104.90788 41.0933383,104.90788 C42.480064,104.90788 43.5526444,105.438473 44.3111118,106.499677 C45.0695791,107.56088 45.4488071,108.872716 45.4488071,110.435223 C45.4488071,112.160492 45.0353998,113.477211 44.2085727,114.385419 C43.3817457,115.293626 42.3368342,115.747723 41.0738071,115.747723 C40.4618249,115.747723 39.9035622,115.643558 39.3990024,115.435223 C38.8944426,115.226889 38.4436007,114.917647 38.0464633,114.507489 L38.0464633,119.458661 L34.0327915,119.458661 Z M38.0171665,110.357098 C38.0171665,111.177415 38.1896908,111.786133 38.5347446,112.18327 C38.8797984,112.580408 39.3159919,112.778973 39.8433383,112.778973 C40.3055802,112.778973 40.6929461,112.588546 41.0054477,112.207684 C41.3179493,111.826823 41.4741977,111.180671 41.4741977,110.269208 C41.4741977,109.42936 41.3114389,108.812504 40.9859165,108.418622 C40.660394,108.02474 40.2632625,107.827802 39.7945102,107.827802 C39.2866952,107.827802 38.8635223,108.026367 38.524979,108.423505 C38.1864356,108.820642 38.0171665,109.465167 38.0171665,110.357098 Z M46.649979,112.642255 L50.5952915,112.271161 C50.7580527,112.739913 50.985915,113.075196 51.2788852,113.27702 C51.5718554,113.478844 51.9624765,113.579755 52.4507602,113.579755 C52.984617,113.579755 53.3980244,113.465824 53.6909946,113.237958 C53.9188603,113.068686 54.0327915,112.8571 54.0327915,112.603192 C54.0327915,112.316732 53.8830534,112.09538 53.5835727,111.93913 C53.3687279,111.828452 52.7990721,111.691735 51.8745883,111.528973 C50.4943731,111.288087 49.5357238,111.065107 48.9986118,110.860028 C48.4614997,110.654949 48.0090303,110.308273 47.6411899,109.819989 C47.2733495,109.331705 47.0894321,108.77507 47.0894321,108.150067 C47.0894321,107.46647 47.2879978,106.877283 47.6851352,106.382489 C48.0822726,105.887695 48.6291421,105.518232 49.3257602,105.274091 C50.0223783,105.029949 50.9566137,104.90788 52.1284946,104.90788 C53.3654799,104.90788 54.2785567,105.00228 54.8677524,105.191083 C55.456948,105.379886 55.9484796,105.672852 56.3423618,106.069989 C56.7362439,106.467126 57.0633891,107.00423 57.3238071,107.681317 L53.5542758,108.052411 C53.4566191,107.720378 53.2938603,107.47624 53.0659946,107.319989 C52.753493,107.111655 52.3758926,107.007489 51.9331821,107.007489 C51.4839611,107.007489 51.1568159,107.087241 50.9517368,107.246747 C50.7466576,107.406253 50.6441196,107.599936 50.6441196,107.827802 C50.6441196,108.081709 50.7743266,108.273764 51.0347446,108.403973 C51.2951625,108.534182 51.8615631,108.651369 52.7339633,108.755536 C54.0555845,108.905276 55.0386476,109.113607 55.6831821,109.380536 C56.3277166,109.647464 56.8208757,110.02832 57.1626743,110.523114 C57.5044729,111.017908 57.6753696,111.561523 57.6753696,112.153973 C57.6753696,112.752935 57.4947073,113.335611 57.1333774,113.90202 C56.7720475,114.468429 56.2023917,114.919271 55.424393,115.254559 C54.6463943,115.589847 53.5868346,115.757489 52.2456821,115.757489 C50.3511414,115.757489 49.001871,115.487309 48.1978305,114.946942 C47.39379,114.406575 46.8778447,113.638353 46.649979,112.642255 Z M59.5796665,101.196942 L63.8277133,101.196942 L63.8277133,104.458661 L63.0074008,111.011395 L60.3804477,111.011395 L59.5796665,104.458661 L59.5796665,101.196942 Z M59.7261508,112.007489 L63.6909946,112.007489 L63.6909946,115.513348 L59.7261508,115.513348 L59.7261508,112.007489 Z" id="oops!" fill="#FFFFFF" transform="translate(35.336502, 110.327802) rotate(-10.000000) translate(-35.336502, -110.327802) "></path>
                <path d="M144.92304,213.00285 C144.92304,213.865083 127.406651,214.570546 105.809026,214.570546 C84.2114014,214.570546 66.6950119,213.870309 66.6950119,213.00285 C66.6950119,212.135392 84.2009501,211.435154 105.809026,211.435154 C127.417102,211.435154 144.92304,212.140618 144.92304,213.00285 Z" id="Shape" fill="#12171E" fill-rule="nonzero"></path>
                <path d="M62.9691211,186.780523 C62.9691211,187.303088 54.7178147,187.747268 44.5382423,187.747268 C34.3586698,187.747268 26.1073634,187.313539 26.1073634,186.780523 C26.1073634,186.247506 34.3586698,185.813777 44.5382423,185.813777 C54.7178147,185.813777 62.9691211,186.247506 62.9691211,186.780523 Z" id="Shape" fill="#12171E" fill-rule="nonzero"></path>
                <path d="M213.933017,43.0228029 C213.038953,43.0239642 212.149874,43.1560055 211.294062,43.4147268 C210.277542,36.3504803 204.59039,30.8806057 197.491923,30.139896 C190.393455,29.3991864 183.699576,33.5771273 181.246556,40.2793349 C178.600982,38.984996 175.547809,38.8017777 172.766433,39.77045 C169.985058,40.7391224 167.706236,42.77932 166.437055,45.4370546 C163.783754,42.9821749 159.927794,42.3332757 156.617154,43.7845154 C153.306514,45.235755 151.17079,48.5111457 151.178109,52.1258907 L223.030882,52.1258907 C223.032265,49.7120824 222.074355,47.3966628 220.368025,45.6893523 C218.661695,43.9820418 216.346825,43.0228025 213.933017,43.0228029 Z" id="Shape" fill="#3B5170" fill-rule="nonzero"></path>
                <path d="M156.419477,21.9320665 C156.42752,14.381797 161.494035,7.77348655 168.783373,5.80570071 C161.980518,3.93960076 154.738275,6.54320353 150.680768,12.3136284 C146.623262,18.0840532 146.623262,25.7800798 150.680768,31.5505047 C154.738275,37.3209295 161.980518,39.9245323 168.783373,38.0584323 C161.494035,36.0906465 156.42752,29.4823361 156.419477,21.9320665 Z" id="Shape" fill="#FFFFFF" fill-rule="nonzero"></path>
                <path d="M84.9168629,45.1078385 C84.9168646,44.9510689 84.9168646,44.7942993 84.9168646,44.632304 C84.9151047,42.2024724 86.2622121,39.9724744 88.4138175,38.8434576 C90.5654229,37.7144408 93.1658926,37.8730177 95.1643705,39.2551069 C95.6541828,33.3398225 100.307964,28.6232961 106.216158,28.0543113 C112.124353,27.4853264 117.5927,31.227048 119.202375,36.9401425 C121.785033,33.1870662 126.747562,31.9264001 130.808328,33.991801 C134.869094,36.057202 136.772907,40.8102512 135.260808,45.1078385 L84.9168629,45.1078385 Z" id="Shape" fill="#384D6B" fill-rule="nonzero"></path>
                <path d="M55.8726841,45.1496437 C56.4731876,45.1493939 57.0703312,45.2392297 57.6441805,45.416152 C58.3537595,40.7045593 62.1602182,37.06932 66.89946,36.5771869 C71.6387018,36.0850538 76.1108726,38.8606223 77.7733967,43.3258907 C79.5437599,42.4510458 81.5909214,42.3223386 83.4569158,42.9685619 C85.3229102,43.6147852 86.8520077,44.9820074 87.7021378,46.7643705 C89.4774253,45.119926 92.0586192,44.6842167 94.2753284,45.6548064 C96.4920375,46.6253962 97.9225741,48.8176484 97.9183089,51.2375297 L49.7900238,51.2375297 C49.7957673,47.8797038 52.5148644,45.1582707 55.8726841,45.1496437 Z" id="Shape" fill="#3D5473" fill-rule="nonzero"></path>
                <polygon id="Shape" fill="#F5DE32" fill-rule="nonzero" points="135.720665 21.864133 136.358195 23.1653207 137.790024 23.3743468 136.755344 24.3828979 137.00095 25.8095012 135.720665 25.1353919 134.44038 25.8095012 134.685986 24.3828979 133.646081 23.3743468 135.07791 23.1653207"></polygon>
                <polygon id="Shape" fill="#F5DE32" fill-rule="nonzero" points="89.0294537 30.0788599 89.6669834 31.3748219 91.0988124 31.583848 90.064133 32.592399 90.3097387 34.0190024 89.0294537 33.3448931 87.743943 34.0190024 87.9895487 32.592399 86.9548694 31.583848 88.3866983 31.3748219"></polygon>
                <polygon id="Shape" fill="#F5DE32" fill-rule="nonzero" points="53.7562945 36.6579572 54.3938242 37.9591449 55.8256532 38.1629454 54.7909739 39.1767221 55.0365796 40.5980998 53.7562945 39.9292162 52.4760095 40.5980998 52.7163895 39.1767221 51.6817102 38.1629454 53.1135392 37.9591449"></polygon>
                <polygon id="Shape" fill="#F5DE32" fill-rule="nonzero" points="174.31734 14.5586698 174.662233 15.264133 175.440855 15.3790974 174.876485 15.9225653 175.012352 16.695962 174.31734 16.3353919 173.622328 16.695962 173.752969 15.9225653 173.193824 15.3790974 173.972447 15.264133"></polygon>
                <polygon id="Shape" fill="#F5DE32" fill-rule="nonzero" points="172.984798 34.8760095 173.455107 35.832304 174.510689 35.9890736 173.747743 36.7311164 173.925416 37.7814727 172.984798 37.2850356 172.038955 37.7814727 172.221853 36.7311164 171.458907 35.9890736 172.514489 35.832304"></polygon>
                <polygon id="Shape" fill="#F5DE32" fill-rule="nonzero" points="110.533017 5.83705463 111.034679 6.85605701 112.158195 7.01805226 111.342993 7.80712589 111.536342 8.92541568 110.533017 8.3976247 109.529691 8.92541568 109.72304 7.80712589 108.913064 7.01805226 110.031354 6.85605701"></polygon>
                <polygon id="Shape" fill="#F5DE32" fill-rule="nonzero" points="32.1795724 29.8646081 32.6812352 30.8836105 33.7995249 31.0456057 32.9895487 31.8346793 33.1828979 32.9529691 32.1795724 32.4251781 31.176247 32.9529691 31.3695962 31.8346793 30.5543943 31.0456057 31.6779097 30.8836105"></polygon>
                <path d="M171.809026,64.056057 C171.809026,63.8209026 171.845606,63.5805226 171.845606,63.3401425 C171.845488,59.6899909 169.819531,56.3414931 166.586262,54.6475102 C163.352993,52.9535274 159.4467,53.1939853 156.445606,55.271734 C155.668985,46.4206629 148.691402,39.3817496 139.847466,38.5277023 C131.00353,37.6736549 122.807968,43.2473173 120.352019,51.7862233 C116.475202,46.1391973 109.013452,44.2400813 102.908722,47.3466692 C96.8039927,50.4532571 93.9471964,57.6032973 96.2304038,64.0612827 L171.809026,64.056057 Z" id="Shape" fill="#40597A" fill-rule="nonzero"></path>
                <path d="M141.421853,32.0437055 C141.421853,32.2714729 141.30034,32.4819387 141.103088,32.5958225 C140.905836,32.7097062 140.662811,32.7097062 140.465558,32.5958225 C140.268306,32.4819387 140.146793,32.2714729 140.146793,32.0437055 C140.146793,31.815938 140.268306,31.6054722 140.465558,31.4915885 C140.662811,31.3777047 140.905836,31.3777047 141.103088,31.4915885 C141.30034,31.6054722 141.421853,31.815938 141.421853,32.0437055 Z" id="Shape" fill="#FFFFFF" fill-rule="nonzero"></path>
                <path d="M169.420903,28.0513064 C169.420903,28.4034043 169.135471,28.6888361 168.783373,28.6888361 C168.431275,28.6888361 168.145843,28.4034043 168.145843,28.0513064 C168.145843,27.6992085 168.431275,27.4137767 168.783373,27.4137767 C169.135471,27.4137767 169.420903,27.6992085 169.420903,28.0513064 Z" id="Shape" fill="#FFFFFF" fill-rule="nonzero"></path>
                <path d="M83.3961995,16.695962 C83.3961995,17.1375274 83.03824,17.4954869 82.5966746,17.4954869 C82.1551092,17.4954869 81.7971496,17.1375274 81.7971496,16.695962 C81.7971496,16.2543966 82.1551092,15.8964371 82.5966746,15.8964371 C83.03824,15.8964371 83.3961995,16.2543966 83.3961995,16.695962 Z" id="Shape" fill="#FFFFFF" fill-rule="nonzero"></path>
                <path d="M130.113539,13.7591449 C130.107081,14.0828949 129.905982,14.3707806 129.604227,14.488255 C129.302473,14.6057294 128.959658,14.5295924 128.736001,14.2954276 C128.512343,14.0612629 128.452014,13.7153156 128.583209,13.4192687 C128.714403,13.1232218 129.011211,12.9355417 129.334917,12.943943 C129.774461,12.9553508 130.122309,13.3195398 130.113539,13.7591449 Z" id="Shape" fill="#FFFFFF" fill-rule="nonzero"></path>
                <path d="M45.3220903,32.9477435 C45.3220903,33.3893089 44.9641308,33.7472684 44.5225653,33.7472684 C44.0809999,33.7472684 43.7230404,33.3893089 43.7230404,32.9477435 C43.7230404,32.506178 44.0809999,32.1482185 44.5225653,32.1482185 C44.7350394,32.146816 44.9392176,32.230601 45.0894627,32.3808461 C45.2397078,32.5310912 45.3234928,32.7352694 45.3220903,32.9477435 Z" id="Shape" fill="#FFFFFF" fill-rule="nonzero"></path>
                <path d="M138.641805,0.893586698 C138.643922,1.23856779 138.437739,1.55075843 138.119624,1.68424611 C137.801508,1.81773378 137.434288,1.7461545 137.189595,1.50296318 C136.944903,1.25977186 136.871065,0.892999108 137.002593,0.574068167 C137.13412,0.255137226 137.445036,0.0470373712 137.790024,0.0470308789 C138.258416,0.0470220641 138.638932,0.425202807 138.641805,0.893586698 Z" id="Shape" fill="#FFFFFF" fill-rule="nonzero"></path>
                <path d="M195.5962,22.663658 C195.5962,22.9522628 195.362239,23.1862233 195.073634,23.1862233 C194.785029,23.1862233 194.551069,22.9522628 194.551069,22.663658 C194.551069,22.3750531 194.785029,22.1410926 195.073634,22.1410926 C195.362239,22.1410926 195.5962,22.3750531 195.5962,22.663658 Z" id="Shape" fill="#FFFFFF" fill-rule="nonzero"></path>
                <path d="M112.685986,23.8342043 C112.685986,24.1228091 112.452025,24.3567696 112.16342,24.3567696 C111.874816,24.3567696 111.640855,24.1228091 111.640855,23.8342043 C111.640855,23.5455994 111.874816,23.311639 112.16342,23.311639 C112.452025,23.311639 112.685986,23.5455994 112.685986,23.8342043 Z" id="Shape" fill="#FFFFFF" fill-rule="nonzero"></path>
                <path d="M66.2142518,28.584323 C66.2142518,28.8729279 65.9802913,29.1068884 65.6916865,29.1068884 C65.4030816,29.1068884 65.1691211,28.8729279 65.1691211,28.584323 C65.1691211,28.2957182 65.4030816,28.0617577 65.6916865,28.0617577 C65.9802913,28.0617577 66.2142518,28.2957182 66.2142518,28.584323 Z" id="Shape" fill="#FFFFFF" fill-rule="nonzero"></path>
                <path d="M204.014727,127.333492 C202.447031,126.016627 201.177197,125.833729 200.424703,122.510214 C200.153712,120.626942 199.979295,118.731033 199.902138,116.829929 C199.750594,112.07981 199.724466,109.858907 199.714014,107.533492 C199.672209,96.6484561 191.567221,87.8223278 180.682185,87.8223278 C169.79715,87.8223278 162.287886,96.6693587 161.645131,107.533492 C161.420428,111.410926 161.848931,117.101663 160.6,121.987648 C159.748219,125.358195 156.816627,129.303563 154.418052,130.07696 C150.791449,131.257957 149.584323,136.096912 154.418052,135.893112 C156.591924,135.804276 159.00095,133.870784 161.002375,131.764846 C160.950119,137.392874 160.950119,141.510689 160.950119,141.510689 C160.908314,141.777197 160.950119,147.258907 165.820428,147.258907 C168.383596,147.259982 170.52055,145.297891 170.737767,142.743943 L170.779572,142.743943 C170.984463,145.307811 173.12487,147.283992 175.696912,147.283992 C178.268954,147.283992 180.409361,145.307811 180.614252,142.743943 L180.650831,142.743943 C180.855722,145.307811 182.996129,147.283992 185.568171,147.283992 C188.140213,147.283992 190.28062,145.307811 190.485511,142.743943 L190.52209,142.743943 C190.726981,145.307811 192.867388,147.283992 195.43943,147.283992 C198.011472,147.283992 200.151879,145.307811 200.35677,142.743943 L200.35677,142.320665 L200.152969,131.827553 C201.159121,132.668715 202.234161,133.423865 203.366746,134.085036 C207.327791,136.201425 209.391924,133.938717 208.592399,131.163895 C208.080285,129.141568 206.04228,129.052732 204.014727,127.333492 Z" id="Shape" fill="#FFFFFF" fill-rule="nonzero"></path>
                <path d="M184.251306,114.321615 C184.253421,116.027748 183.227298,117.567059 181.651644,118.221433 C180.075989,118.875807 178.261282,118.516301 177.054115,117.31063 C175.846949,116.10496 175.485193,114.2907 176.137612,112.714235 C176.790032,111.13777 178.32807,110.10974 180.034204,110.109739 C181.152169,110.108352 182.224819,110.551489 183.015829,111.34152 C183.80684,112.13155 184.251307,113.20365 184.251306,114.321615 Z" id="Shape" fill="#272525" fill-rule="nonzero"></path>
                <path d="M180.023753,118.502138 C181.47943,118.501618 182.831383,117.748557 183.5981,116.511164 C182.886919,115.18579 181.522927,114.34026 180.019549,114.292842 C178.516171,114.245423 177.101606,115.003315 176.308314,116.281235 C177.042541,117.649991 178.470505,118.503556 180.023753,118.502138 Z" id="Shape" fill="#B2474D" fill-rule="nonzero"></path>
                <ellipse id="Oval" fill="#12171E" fill-rule="nonzero" cx="180.034204" cy="164.832779" rx="18.4413302" ry="1"></ellipse>
                <path d="M47.5220903,141.191924 C47.5220903,141.191924 45.0294537,139.854157 44.6166271,141.191924 C44.2038005,142.529691 45.1914489,145.027553 48.1543943,144.886461 C51.1173397,144.745368 47.5220903,141.191924 47.5220903,141.191924 Z" id="Shape" fill="#FFFFFF" fill-rule="nonzero"></path>
                <path d="M84.7287411,116.328266 C84.3420428,115.356295 83.2028504,115.189074 82.1890736,115.957245 C81.1752969,116.725416 80.6631829,118.136342 81.0498812,119.092637 C81.4365796,120.048931 82.575772,120.231829 83.5895487,119.463658 C84.6033254,118.695487 85.1154394,117.300238 84.7287411,116.328266 Z" id="Shape" fill="#DCDCDB" fill-rule="nonzero"></path>
                <ellipse id="Oval" fill="#DCDCDB" fill-rule="nonzero" transform="translate(91.059932, 110.704048) rotate(-33.270000) translate(-91.059932, -110.704048) " cx="91.0599319" cy="110.704048" rx="5.72731591" ry="2.47173397"></ellipse>
                <ellipse id="Oval" fill="#DCDCDB" fill-rule="nonzero" transform="translate(169.754187, 97.974974) rotate(-56.790000) translate(-169.754187, -97.974974) " cx="169.754187" cy="97.974974" rx="1.40570071" ry="1.00332542"></ellipse>
                <path d="M177.23848,92.1021378 C176.799525,91.4489311 175.205701,91.7311164 173.67981,92.7396675 C172.153919,93.7482185 171.27601,95.0912114 171.714964,95.7444181 C172.153919,96.3976247 173.747743,96.1154394 175.273634,95.112114 C176.799525,94.1087886 177.677435,92.7605701 177.23848,92.1021378 Z" id="Shape" fill="#DCDCDB" fill-rule="nonzero"></path>
                <path d="M110.768171,149.134917 C109.948102,146.775252 107.721854,145.195267 105.223753,145.2 C102.728478,145.196549 100.505934,146.776885 99.6897862,149.134917 C99.4314849,149.821796 98.6652644,150.169228 97.9783848,149.910926 C97.2915053,149.652625 96.944074,148.886404 97.2023753,148.199525 C98.3904884,144.793875 101.611638,142.519751 105.218527,142.540143 C108.828795,142.515457 112.055921,144.787252 113.250356,148.194299 C113.373844,148.524142 113.361174,148.889541 113.215137,149.210038 C113.0691,149.530536 112.80167,149.779851 112.471734,149.903088 C112.325351,149.961837 112.169571,149.993701 112.011876,149.99715 C111.458017,149.997374 110.96224,149.653663 110.768171,149.134917 Z" id="Shape" fill="#272525" fill-rule="nonzero"></path>
                <path d="M89.6617577,140.261758 C89.8745598,140.269036 90.0808365,140.187661 90.2313539,140.037055 L92.2327791,138.098337 C92.4572937,137.904966 92.5564529,137.603284 92.4904429,137.314421 C92.4244329,137.025558 92.2040801,136.79689 91.917859,136.72023 C91.6316379,136.643571 91.3264917,136.731492 91.1249406,136.948694 L89.1287411,138.882185 C88.8983388,139.104401 88.8226823,139.442618 88.9364477,139.741821 C89.050213,140.041024 89.331469,140.243533 89.6513064,140.256532 L89.6617577,140.261758 Z" id="Shape" fill="#F2E0DF" fill-rule="nonzero"></path>
                <path d="M85.6432304,140.397625 C85.8554961,140.401857 86.0606217,140.320936 86.2128266,140.172922 L88.2351544,138.234204 C88.5237106,137.923242 88.5191684,137.441049 88.2248053,137.135578 C87.9304423,136.830107 87.4487485,136.807715 87.1273159,137.084561 L85.1102138,139.023278 C84.8798115,139.245493 84.804155,139.583711 84.9179204,139.882914 C85.0316857,140.182117 85.3129417,140.384626 85.6327791,140.397625 L85.6432304,140.397625 Z" id="Shape" fill="#F2E0DF" fill-rule="nonzero"></path>
                <path d="M81.6247031,140.533492 C81.836452,140.534904 82.0405466,140.45439 82.1942993,140.308789 L84.2166271,138.370071 C84.5051833,138.059109 84.500641,137.576916 84.206278,137.271445 C83.911915,136.965974 83.4302211,136.943582 83.1087886,137.220428 L81.0916865,139.159145 C80.8612841,139.38136 80.7856277,139.719578 80.899393,140.018781 C81.0131584,140.317984 81.2944144,140.520493 81.6142518,140.533492 L81.6247031,140.533492 Z" id="Shape" fill="#F2E0DF" fill-rule="nonzero"></path>
                <path d="M90.7434679,130.202375 C90.6852082,132.451063 88.8162967,134.227451 86.5675493,134.171559 C84.318802,134.115667 82.5404465,132.248628 82.5939702,129.999823 C82.647494,127.751018 84.5126601,125.970697 86.7615202,126.021853 C87.8454172,126.043708 88.8756927,126.497564 89.6234089,127.282568 C90.371125,128.067572 90.7743445,129.118698 90.7434679,130.202375 Z" id="_Path_" fill="#272525" fill-rule="nonzero"></path>
                <path d="M120.498337,140.261758 C120.285644,140.268407 120.079608,140.187127 119.928741,140.037055 L117.911639,138.098337 C117.706275,137.901374 117.621589,137.609813 117.689482,137.333481 C117.757375,137.057149 117.967531,136.838028 118.240788,136.758659 C118.514045,136.67929 118.808888,136.751731 119.014252,136.948694 L121.03658,138.887411 C121.266982,139.109626 121.342638,139.447844 121.228873,139.747047 C121.115108,140.04625 120.833852,140.248759 120.514014,140.261758 L120.498337,140.261758 Z" id="Shape" fill="#F2E0DF" fill-rule="nonzero"></path>
                <path d="M124.516865,140.397625 C124.304599,140.401857 124.099473,140.320936 123.947268,140.172922 L121.930166,138.234204 C121.724802,138.037241 121.640116,137.74568 121.708009,137.469348 C121.775902,137.193016 121.986059,136.973895 122.259316,136.894526 C122.532572,136.815157 122.827415,136.887598 123.032779,137.084561 L125.055107,139.023278 C125.285509,139.245493 125.361166,139.583711 125.2474,139.882914 C125.133635,140.182117 124.852379,140.384626 124.532542,140.397625 L124.516865,140.397625 Z" id="Shape" fill="#F2E0DF" fill-rule="nonzero"></path>
                <path d="M128.535392,140.533492 C128.323844,140.533834 128.120132,140.45347 127.965796,140.308789 L125.948694,138.35962 C125.74333,138.162657 125.658644,137.871096 125.726536,137.594764 C125.794429,137.318432 126.004586,137.099311 126.277843,137.019942 C126.5511,136.940573 126.845942,137.013013 127.051306,137.209976 L129.073634,139.148694 C129.304037,139.370909 129.379693,139.709126 129.265928,140.008329 C129.152162,140.307532 128.870906,140.510042 128.551069,140.52304 L128.535392,140.533492 Z" id="Shape" fill="#F2E0DF" fill-rule="nonzero"></path>
                <path d="M119.406176,130.202375 C119.464355,132.4504 121.332172,134.226592 123.58028,134.171719 C125.828387,134.116847 127.607325,132.251644 127.555759,130.003458 C127.504193,127.755272 125.641608,125.973594 123.393349,126.021853 C122.308998,126.043729 121.278208,126.497414 120.529664,127.282257 C119.78112,128.0671 119.376718,129.118203 119.406176,130.202375 Z" id="_Path_2" fill="#272525" fill-rule="nonzero"></path>
                <path d="M127.96057,115.51829 C127.465585,114.607594 126.802407,113.799014 126.006176,113.135392 C124.933989,112.177838 123.757841,111.343491 122.499762,110.647981 C122.423875,110.603061 122.327959,110.6106 122.260021,110.666824 C122.192083,110.723049 122.166739,110.815863 122.196675,110.898812 C122.470969,111.630085 122.603964,112.406777 122.588599,113.187648 C122.588599,114.175297 122.484086,115.162945 122.510214,116.145368 C122.492479,117.139926 122.758973,118.118886 123.278385,118.967221 C123.845439,119.839382 124.825167,120.353986 125.865083,120.325891 C126.938609,120.212947 127.854598,119.49961 128.227078,118.486461 C128.543149,117.501725 128.447007,116.430969 127.96057,115.51829 Z" id="Shape" fill="#6CAAD5" fill-rule="nonzero"></path>
                <path d="M127.767221,117.059857 C127.526841,116.673159 127.056532,116.741093 126.72209,117.20095 C126.383328,117.638498 126.313025,118.227035 126.539192,118.732067 C126.779572,119.118765 127.249881,119.050831 127.584323,118.590974 C127.920885,118.152527 127.991038,117.565244 127.767221,117.059857 Z" id="Shape" fill="#A5D5ED" fill-rule="nonzero"></path>
                <path d="M193.218527,105.835154 C193.218527,107.22623 192.090838,108.353919 190.699762,108.353919 C189.308687,108.353919 188.180998,107.22623 188.180998,105.835154 C188.180998,104.444079 189.308687,103.31639 190.699762,103.31639 C191.368206,103.314998 192.009672,103.579921 192.482334,104.052583 C192.954996,104.525245 193.219918,105.166711 193.218527,105.835154 Z" id="Shape" fill="#272525" fill-rule="nonzero"></path>
                <path d="M171.892637,105.835154 C171.892637,107.22623 170.764947,108.353919 169.373872,108.353919 C167.982796,108.353919 166.855107,107.22623 166.855107,105.835154 C166.855107,104.444079 167.982796,103.31639 169.373872,103.31639 C170.042315,103.314998 170.683782,103.579921 171.156443,104.052583 C171.629105,104.525245 171.894028,105.166711 171.892637,105.835154 Z" id="Shape" fill="#272525" fill-rule="nonzero"></path>
                <path d="M59.7083135,54.9686461 C58.950416,54.9697865 58.1968132,55.0824748 57.471734,55.3030879 C56.5945878,49.3216674 51.767666,44.6997226 45.7538341,44.0827928 C39.7400022,43.4658629 34.0752065,47.0115134 32.0019002,52.6902613 C29.7632076,51.5937559 27.1793064,51.4367487 24.8243194,52.2541254 C22.4693324,53.0715022 20.5383179,54.7955614 19.4603325,57.0432304 C17.2144655,54.969285 13.9546689,54.4197536 11.1530012,55.6427937 C8.35133357,56.8658337 6.53807891,59.6299549 6.53206651,62.6869359 L67.4266033,62.6869359 C67.4266033,60.6399181 66.6134287,58.6767409 65.1659686,57.2292808 C63.7185085,55.7818207 61.7553313,54.9686461 59.7083135,54.9686461 Z" id="Shape" fill="#3B5170" fill-rule="nonzero"></path>
                <path d="M200.675534,88.3866983 L205.153919,84.3420428 C205.537969,83.9934016 206.131765,84.021455 206.481235,84.4047506 C206.825628,84.7912323 206.795352,85.382765 206.413302,85.7320665 L201.934917,89.7610451 C201.550867,90.1096862 200.957071,90.0816329 200.607601,89.6983373 C200.273517,89.3141065 200.303544,88.7343595 200.675534,88.3866983 Z M197.477435,91.2817102 L197.817102,90.9733967 C198.000676,90.8062621 198.243163,90.7189602 198.491145,90.7307222 C198.739127,90.7424842 198.972261,90.8523452 199.139192,91.0361045 C199.487834,91.4201542 199.45978,92.0139504 199.076485,92.3634204 L198.731591,92.671734 C198.547969,92.8395501 198.304778,92.9268244 198.056349,92.9140593 C197.807921,92.9012942 197.574957,92.7895535 197.409501,92.6038005 C197.241685,92.4201776 197.154411,92.176987 197.167176,91.9285585 C197.179941,91.6801301 197.291682,91.4471655 197.477435,91.2817102 Z" id="Shape" fill="#FFFFFF" fill-rule="nonzero"></path>
                <path d="M197.790974,85.8209026 L201.448931,81.535867 C201.766253,81.1704724 202.318544,81.1285262 202.687411,81.4418052 C203.052806,81.7591271 203.094752,82.3114184 202.781473,82.680285 L199.092162,86.9653207 C198.94217,87.143023 198.727111,87.2530628 198.495243,87.2707477 C198.263374,87.2884325 198.034114,87.2122815 197.858907,87.0593824 C197.68462,86.9047914 197.57938,86.686931 197.56662,86.454312 C197.553861,86.221693 197.634641,85.9936289 197.790974,85.8209026 Z M195.178147,88.8831354 L195.460333,88.5591449 C195.610324,88.3814426 195.825383,88.2714028 196.057251,88.2537179 C196.28912,88.236033 196.51838,88.3121841 196.693587,88.4650831 C196.871613,88.6160043 196.981768,88.8319465 196.999443,89.0646654 C197.017118,89.2973843 196.940839,89.5274861 196.787648,89.7035629 L196.505463,90.0275534 C196.354542,90.2055795 196.1386,90.3157351 195.905881,90.33341 C195.673162,90.3510848 195.44306,90.274806 195.266983,90.1216152 C195.086362,89.9736195 194.972142,89.7597634 194.949587,89.5273455 C194.927032,89.2949275 194.997999,89.0630997 195.146793,88.8831354 L195.178147,88.8831354 Z" id="Shape" fill="#FFFFFF" fill-rule="nonzero"></path>
                <path d="M203.288361,91.7102138 L208.03848,88.647981 C208.448487,88.3864032 208.992816,88.5055482 209.256057,88.9144893 C209.517139,89.3228839 209.397837,89.8655923 208.989549,90.1268409 L204.23943,93.183848 C204.04434,93.311114 203.806468,93.3551065 203.578766,93.3060326 C203.351063,93.2569588 203.152429,93.1188917 203.027078,92.9225653 C202.899812,92.7274754 202.85582,92.4896038 202.904894,92.2619012 C202.953968,92.0341986 203.092035,91.835564 203.288361,91.7102138 Z M199.891686,93.8945368 L200.252257,93.6593824 C200.661884,93.4147468 201.191755,93.5396946 201.448931,93.9415677 C201.710013,94.3499623 201.590711,94.8926707 201.182423,95.1539192 L200.821853,95.3890736 C200.413458,95.6501558 199.87075,95.5308535 199.609501,95.1225653 C199.478092,94.9249868 199.432804,94.6824159 199.48407,94.4507319 C199.535336,94.2190479 199.678736,94.0182291 199.881235,93.8945368 L199.891686,93.8945368 Z" id="Shape" fill="#FFFFFF" fill-rule="nonzero"></path>
            </g>
        </g>
    </g>
</svg>